<svg width="180" height="33" viewBox="0 0 180 33" fill="none" xmlns="http://www.w3.org/2000/svg">
<path d="M16.647 0.537476C7.80935 0.537476 0.640625 7.7062 0.640625 16.5438C0.640625 25.3814 7.80935 32.5494 16.647 32.5494C25.4846 32.5494 32.6526 25.3792 32.6526 16.5438C32.6526 7.70842 25.4824 0.537476 16.647 0.537476ZM24.5189 8.67186C24.6344 8.78746 24.7131 8.9347 24.7449 9.09497C24.7767 9.25525 24.7603 9.42136 24.6978 9.57231C24.6352 9.72327 24.5293 9.85228 24.3934 9.94305C24.2575 10.0338 24.0978 10.0823 23.9344 10.0823C23.771 10.0823 23.6112 10.0338 23.4754 9.94305C23.3395 9.85228 23.2336 9.72327 23.171 9.57231C23.1084 9.42136 23.092 9.25525 23.1239 9.09497C23.1557 8.9347 23.2343 8.78746 23.3498 8.67186C23.5056 8.51817 23.7156 8.432 23.9344 8.432C24.1532 8.432 24.3632 8.51817 24.5189 8.67186ZM18.5193 6.37492C18.5787 6.16664 18.7177 5.99008 18.9062 5.88338C19.0947 5.77667 19.3175 5.74838 19.5267 5.80462C19.7359 5.86085 19.9145 5.9971 20.0241 6.18394C20.1337 6.37077 20.1653 6.59321 20.1123 6.8032C20.0855 6.90925 20.0379 7.00891 19.9722 7.09639C19.9066 7.18387 19.8242 7.25741 19.7298 7.31274C19.6354 7.36807 19.531 7.40408 19.4226 7.41868C19.3142 7.43328 19.204 7.42617 19.0984 7.39777C18.9928 7.36937 18.8938 7.32025 18.8074 7.25326C18.7209 7.18627 18.6486 7.10275 18.5947 7.00757C18.5408 6.91238 18.5064 6.80743 18.4935 6.69882C18.4805 6.59021 18.4893 6.48011 18.5193 6.37492ZM13.7677 5.79258C13.9771 5.74188 14.1981 5.77516 14.3833 5.8853C14.5686 5.99545 14.7033 6.1737 14.7588 6.38194C14.8143 6.59017 14.7861 6.81185 14.6802 6.99955C14.5743 7.18724 14.3992 7.32605 14.1923 7.38628C14.0868 7.417 13.9761 7.42632 13.867 7.41369C13.7578 7.40106 13.6522 7.36674 13.5565 7.31274C13.4608 7.25874 13.3768 7.18615 13.3095 7.09924C13.2422 7.01233 13.193 6.91285 13.1647 6.80664C13.1364 6.70044 13.1296 6.58965 13.1447 6.48078C13.1599 6.37191 13.1966 6.26717 13.2528 6.1727C13.3089 6.07823 13.3834 5.99593 13.4719 5.93066C13.5603 5.86538 13.6609 5.81843 13.7677 5.79258ZM8.77501 8.67186C8.8906 8.55637 9.03785 8.47773 9.19812 8.44591C9.3584 8.41408 9.52451 8.43048 9.67546 8.49305C9.82642 8.55561 9.95543 8.66153 10.0462 8.7974C10.137 8.93328 10.1854 9.09301 10.1854 9.25642C10.1854 9.41982 10.137 9.57956 10.0462 9.71544C9.95543 9.85131 9.82642 9.95722 9.67546 10.0198C9.52451 10.0824 9.3584 10.0988 9.19812 10.0669C9.03785 10.0351 8.8906 9.95647 8.77501 9.84097C8.62097 9.68542 8.53456 9.47534 8.53456 9.25642C8.53456 9.03749 8.62097 8.82742 8.77501 8.67186ZM8.77501 24.4158C8.65952 24.3002 8.58088 24.153 8.54906 23.9927C8.51723 23.8324 8.53363 23.6663 8.5962 23.5153C8.65876 23.3644 8.76468 23.2354 8.90055 23.1446C9.03643 23.0538 9.19616 23.0054 9.35957 23.0054C9.52297 23.0054 9.68271 23.0538 9.81858 23.1446C9.95446 23.2354 10.0604 23.3644 10.1229 23.5153C10.1855 23.6663 10.2019 23.8324 10.1701 23.9927C10.1383 24.153 10.0596 24.3002 9.94412 24.4158C9.78856 24.5698 9.57849 24.6562 9.35957 24.6562C9.14064 24.6562 8.93057 24.5698 8.77501 24.4158ZM14.7746 26.712C14.7472 26.8167 14.6994 26.9149 14.6339 27.001C14.5683 27.0871 14.4864 27.1594 14.3928 27.2136C14.2992 27.2679 14.1957 27.3031 14.0884 27.3172C13.9812 27.3313 13.8721 27.3241 13.7677 27.2958C13.6098 27.2541 13.4678 27.1665 13.3597 27.0441C13.2516 26.9216 13.1823 26.7699 13.1606 26.608C13.1389 26.4461 13.1657 26.2815 13.2376 26.1348C13.3096 25.9882 13.4235 25.8663 13.5648 25.7844C13.7061 25.7026 13.8686 25.6645 14.0316 25.6751C14.1945 25.6857 14.3507 25.7444 14.4803 25.8438C14.6098 25.9433 14.707 26.0789 14.7594 26.2336C14.8118 26.3883 14.8171 26.555 14.7746 26.7127V26.712ZM19.5263 27.2958C19.3168 27.3465 19.0958 27.3132 18.9106 27.2031C18.7254 27.0929 18.5906 26.9147 18.5351 26.7065C18.4797 26.4982 18.5079 26.2765 18.6138 26.0888C18.7196 25.9011 18.8948 25.7623 19.1017 25.7021C19.2072 25.6714 19.3178 25.6621 19.427 25.6747C19.5362 25.6873 19.6417 25.7217 19.7375 25.7757C19.8332 25.8297 19.9172 25.9022 19.9845 25.9891C20.0517 26.0761 20.101 26.1755 20.1293 26.2817C20.1576 26.388 20.1643 26.4987 20.1492 26.6076C20.1341 26.7165 20.0974 26.8212 20.0412 26.9157C19.985 27.0102 19.9105 27.0925 19.8221 27.1577C19.7337 27.223 19.6331 27.27 19.5263 27.2958ZM24.5189 24.4165C24.4033 24.532 24.2561 24.6107 24.0958 24.6425C23.9356 24.6743 23.7694 24.6579 23.6185 24.5953C23.4675 24.5328 23.3385 24.4269 23.2478 24.291C23.157 24.1551 23.1085 23.9954 23.1085 23.832C23.1085 23.6686 23.157 23.5088 23.2478 23.373C23.3385 23.2371 23.4675 23.1312 23.6185 23.0686C23.7694 23.006 23.9356 22.9896 24.0958 23.0215C24.2561 23.0533 24.4033 23.1319 24.5189 23.2474C24.6724 23.4031 24.7584 23.613 24.7584 23.8316C24.7584 24.0502 24.6724 24.2601 24.5189 24.4158V24.4165ZM21.5608 21.4576L23.599 28.5843L18.4441 23.2592L16.647 30.4442L14.8491 23.2592L9.69423 28.5843L11.7332 21.4576L4.60572 23.4958L9.92864 18.341L2.74591 16.5438L9.92864 14.7459L4.60572 9.59108L11.7332 11.63L9.69423 4.50257L14.8491 9.82549L16.647 2.63981L18.4441 9.82549L23.599 4.49963L21.5608 11.63L28.6875 9.59108L23.3624 14.7459L30.5473 16.5438L23.3624 18.341L28.6875 23.4958L21.5608 21.4576ZM6.47807 18.4154C6.63573 18.3729 6.80248 18.3781 6.95718 18.4304C7.11189 18.4826 7.24759 18.5797 7.3471 18.7092C7.44661 18.8386 7.50545 18.9948 7.51615 19.1577C7.52686 19.3207 7.48896 19.4831 7.40724 19.6245C7.32553 19.7659 7.20369 19.8799 7.05716 19.952C6.91062 20.024 6.74599 20.051 6.58411 20.0294C6.42224 20.0079 6.27041 19.9387 6.14786 19.8308C6.02531 19.7229 5.93756 19.581 5.89573 19.4231C5.86776 19.3187 5.86063 19.2098 5.87477 19.1027C5.8889 18.9955 5.92401 18.8922 5.97809 18.7986C6.03217 18.705 6.10416 18.623 6.18995 18.5573C6.27574 18.4915 6.37365 18.4433 6.47807 18.4154ZM5.89573 13.6645C5.93744 13.5066 6.0251 13.3646 6.14759 13.2566C6.27009 13.1485 6.42191 13.0793 6.58381 13.0576C6.74571 13.0359 6.9104 13.0628 7.057 13.1348C7.2036 13.2069 7.32552 13.3208 7.40729 13.4622C7.48907 13.6036 7.52702 13.7661 7.51634 13.9291C7.50566 14.0921 7.44683 14.2483 7.34731 14.3778C7.24778 14.5073 7.11204 14.6043 6.95729 14.6566C6.80255 14.7089 6.63576 14.7141 6.47807 14.6715C6.26788 14.6143 6.08877 14.4764 5.97972 14.2878C5.87066 14.0993 5.84047 13.8753 5.89573 13.6645ZM26.8151 14.6715C26.6574 14.7138 26.4907 14.7084 26.3361 14.6558C26.1814 14.6033 26.0459 14.5061 25.9466 14.3765C25.8473 14.2469 25.7887 14.0907 25.7782 13.9277C25.7677 13.7647 25.8058 13.6023 25.8877 13.4611C25.9697 13.3198 26.0917 13.206 26.2383 13.1341C26.3849 13.0623 26.5496 13.0355 26.7114 13.0573C26.8733 13.0791 27.025 13.1484 27.1474 13.2565C27.2698 13.3646 27.3573 13.5066 27.399 13.6645C27.427 13.769 27.4341 13.878 27.4199 13.9852C27.4057 14.0924 27.3705 14.1957 27.3163 14.2893C27.262 14.3829 27.1898 14.4648 27.1038 14.5304C27.0178 14.596 26.9197 14.6439 26.8151 14.6715ZM27.399 19.4231C27.3572 19.581 27.2695 19.7228 27.147 19.8308C27.0245 19.9388 26.8727 20.0079 26.7108 20.0296C26.549 20.0512 26.3844 20.0243 26.2378 19.9523C26.0913 19.8803 25.9694 19.7664 25.8876 19.6251C25.8058 19.4838 25.7679 19.3214 25.7785 19.1584C25.7891 18.9955 25.8478 18.8393 25.9472 18.7098C26.0466 18.5803 26.1822 18.4832 26.3368 18.4307C26.4915 18.3783 26.6582 18.373 26.8159 18.4154C27.0263 18.4726 27.2056 18.6106 27.3147 18.7993C27.4239 18.988 27.4542 19.2122 27.399 19.4231Z" fill="url(#paint0_radial_1749_3290)"/>
<path d="M16.6484 8.01428L17.7519 12.4231L20.912 9.15686L19.6633 13.5266L24.0331 12.2779L20.7668 15.4381L25.1757 16.5416L20.7668 17.6451L24.0331 20.8052L19.6633 19.5565L20.912 23.927L17.7519 20.66L16.6484 25.0689L15.5449 20.66L12.3847 23.927L13.6335 19.5565L9.26293 20.8052L12.53 17.6451L8.12109 16.5416L12.53 15.4381L9.26293 12.2779L13.6335 13.5266L12.3847 9.15686L15.5449 12.4231L16.6484 8.01428Z" fill="url(#paint1_radial_1749_3290)"/>
<path d="M35.9567 24.1473C36.7978 23.1676 38.0155 22.5042 38.8669 22.5588C43.3053 22.8182 43.4461 29.7526 48.8184 29.7526C53.9334 29.7526 57.1481 19.2645 50.4158 19.2645C48.7402 19.2645 47.1252 19.8999 45.4703 21.114L45.2705 20.9982L48.525 17.1555C46.8156 16.2024 45.785 14.4391 46.4507 11.9549C47.4827 8.11148 51.5782 6.4072 54.9013 6.4072C55.7297 6.3967 56.5533 6.53348 57.3339 6.81115L58.1396 5.85803C58.8413 4.9624 59.518 2.65071 60.7933 2.65071C62.4489 2.62196 62.1939 4.52896 60.525 5.16437L58.4735 5.91847L57.6236 6.92689C59.9087 7.88075 60.8088 10.1335 60.2036 12.3884C59.1716 16.2304 55.163 17.9361 51.8112 17.9361C50.755 17.9458 49.71 17.7192 48.7528 17.2727L46.0519 20.4513C47.7119 19.3242 49.9705 18.66 51.935 18.66C61.3314 18.7463 55.9539 30.1882 47.6905 30.1882C42.2585 30.1882 41.859 24.7562 36.5707 24.7562C36.1667 24.7578 35.7633 24.7868 35.3633 24.8432L35.9567 24.1473ZM49.0498 10.5669C48.5773 12.3294 48.8597 14.2954 49.787 15.6812L56.3255 7.99648C55.6156 7.30209 54.6625 6.86939 53.5066 6.86939C50.9001 6.89814 49.5533 8.6894 49.0498 10.5669ZM52.9213 17.4732C55.6053 17.5882 57.1046 15.7682 57.6155 13.8612C58.1425 11.8967 57.7422 9.61451 56.5031 8.19846L49.9366 15.8839C50.6207 16.7788 51.6357 17.4179 52.9213 17.4732Z" fill="white"/>
<path d="M61.1536 18.8407L63.6452 9.53867C63.8015 8.95706 63.5162 8.6799 62.908 8.87524L62.6641 8.9578L62.7009 8.81996L66.7957 7.07514L66.0092 10.0097C67.4975 8.07249 69.6109 6.79871 71.6041 6.79871C74.0684 6.79871 74.7068 8.23909 74.5874 10.2316C76.1132 8.15505 78.304 6.79871 80.3526 6.79871C84.3943 6.79871 83.5289 10.6473 82.5205 14.4119L81.3337 18.8414C80.918 20.3894 81.3131 20.7794 81.95 20.7794L81.9124 20.918H77.1563L77.1932 20.7794C77.8308 20.7794 78.4323 20.3916 78.848 18.8414L79.4562 16.5718C80.4882 12.7239 82.1608 7.40759 79.3088 7.40759C77.8971 7.40759 75.8169 8.76467 74.5623 10.7572C74.4326 11.8629 74.12 13.1389 73.778 14.4119L72.586 18.8407C72.1703 20.3887 72.5646 20.7786 73.2008 20.7786L73.1639 20.9172H68.4049L68.4418 20.7786C69.0779 20.7786 69.6802 20.3909 70.0959 18.8407L70.7041 16.571C71.7361 12.7231 73.4087 7.40685 70.5567 7.40685C69.1443 7.40685 67.0641 8.76393 65.8183 10.7292L63.6445 18.8377C63.2287 20.3857 63.6238 20.7757 64.26 20.7757L64.2231 20.9143H59.4648L59.5017 20.7757C60.1356 20.7786 60.7379 20.3909 61.1536 18.8407Z" fill="white"/>
<path d="M90.292 7.80786L90.2544 7.94644C89.6175 7.94644 89.1538 8.33418 89.403 9.8844L90.9119 19.1311L97.404 9.8844C98.4846 8.33639 98.2273 7.94644 97.5912 7.94644L97.628 7.80786H100.203L100.165 7.94644C99.5291 7.94644 98.7891 8.33418 97.7084 9.8844L89.4612 21.65H88.8251L86.9085 9.8844C86.6601 8.33639 86.1271 7.94644 85.4902 7.94644L85.5271 7.80786H90.292Z" fill="white"/>
<path d="M101.285 9.55194L105.38 7.80786L102.227 19.5742C101.811 21.1222 102.206 21.5121 102.843 21.5121L102.805 21.65H98.043L98.0806 21.5121C98.7175 21.5121 99.319 21.1244 99.7347 19.5742L102.227 10.2721C102.383 9.69126 102.097 9.4141 101.49 9.6087L101.245 9.69274L101.285 9.55194ZM103.128 4.53936C103.349 3.70934 104.192 3.04443 105.051 3.04443C105.881 3.04443 106.368 3.70786 106.145 4.53936C105.913 5.40256 105.071 6.06599 104.241 6.06599C103.382 6.06599 102.896 5.40256 103.126 4.54157L103.128 4.53936Z" fill="white"/>
<path d="M114.362 7.55945C116.632 7.55945 118.601 9.30279 118.211 11.7951H108.741C108.632 12.0995 108.516 12.432 108.434 12.7364C107.188 17.3871 109.318 20.9032 112.475 20.9032C113.749 20.9032 115.171 20.3496 116.592 19.0759L116.673 19.1864C114.904 21.0411 112.568 21.8999 110.519 21.8999C107.308 21.8999 104.836 19.2417 106.119 14.4547C107.403 9.66768 111.455 7.55945 114.362 7.55945ZM108.871 11.5209H115.986C115.928 9.36103 115.109 7.97667 113.301 8.00395C111.245 8.02975 109.68 9.63525 108.871 11.5209Z" fill="white"/>
<path d="M121.49 7.80784L121.943 6.11978C122.098 5.53817 121.813 5.261 121.206 5.45635L120.962 5.53964L121 5.40106L125.093 3.65771L123.981 7.80931H127.331L127.257 8.08721H123.907L122.297 14.0942C121.4 17.4438 120.085 21.0152 121.882 21.0152C122.629 21.0152 123.357 20.573 123.901 19.9906L124.058 20.1292C122.542 21.6514 121.223 21.9286 120.613 21.9286C117.457 21.9286 118.696 18.2473 119.524 15.1468L121.415 8.08795H120.088L120.162 7.81005L121.49 7.80784Z" fill="white"/>
<path d="M125.033 21.6499L125.07 21.5121C125.708 21.5121 126.309 21.1243 126.725 19.5741L129.217 10.2721C129.373 9.69121 129.087 9.41404 128.48 9.60864L128.235 9.69268L128.272 9.55336L132.368 7.8078L131.557 10.8257C133.17 8.83538 135.316 7.53137 137.644 7.53137C141.962 7.53137 141.07 11.3793 140.061 15.1446L138.875 19.5741C138.459 21.1221 138.853 21.5121 139.491 21.5121L139.453 21.6499H134.691L134.728 21.5121C135.365 21.5121 135.967 21.1243 136.383 19.5741L136.991 17.3044C138.023 13.4558 139.723 8.14099 136.456 8.14099C134.795 8.14099 132.736 9.52461 131.379 11.4898L129.212 19.5741C128.797 21.1221 129.191 21.5121 129.828 21.5121L129.791 21.6499H125.033Z" fill="white"/>
<path d="M152.717 11.9337C153.276 9.33154 153.065 7.94645 151.08 7.91917C148.513 7.89116 146.243 10.5766 145.036 10.6319C144.44 10.6879 144.127 9.99497 144.248 9.44211C144.677 7.83661 149.348 7.55945 150.4 7.55945C155.3 7.55945 155.352 11.6012 154.662 14.1761L153.216 19.5742C152.8 21.1222 153.195 21.5121 153.832 21.5121L153.794 21.65H151.136C150.555 21.65 150.272 21.2637 150.428 20.6814L151.607 16.2799C150.191 19.1864 147.906 21.9271 144.501 21.9271C142.535 21.9271 141.09 20.7094 141.7 18.439C142.36 15.9747 145.779 12.9303 152.717 11.9337ZM146.014 20.6261C149.309 20.6261 151.123 17.0546 152.164 14.2033C152.358 13.4831 152.533 12.819 152.671 12.213C146.959 13.0689 144.705 14.8675 144.023 17.418C143.499 19.3803 144.384 20.6261 146.014 20.6261Z" fill="white"/>
<path d="M157.148 19.5741L159.64 10.2721C159.795 9.69121 159.51 9.41404 158.903 9.60864L158.658 9.69268L158.695 9.55336L162.79 7.80928L162.003 10.7431C163.491 8.80442 165.604 7.53137 167.597 7.53137C170.062 7.53137 170.701 8.97101 170.581 10.9643C172.107 8.88772 174.298 7.53137 176.346 7.53137C180.388 7.53137 179.524 11.3793 178.514 15.1446L177.328 19.5741C176.912 21.1221 177.307 21.5121 177.944 21.5121L177.906 21.6499H173.144L173.182 21.5121C173.819 21.5121 174.42 21.1243 174.836 19.5741L175.444 17.3044C176.476 13.4558 178.149 8.14099 175.297 8.14099C173.884 8.14099 171.805 9.4966 170.55 11.4898C170.421 12.5956 170.108 13.8716 169.766 15.1446L168.578 19.5741C168.163 21.1221 168.558 21.5121 169.195 21.5121L169.157 21.6499H164.399L164.436 21.5121C165.073 21.5121 165.674 21.1243 166.09 19.5741L166.698 17.3044C167.73 13.4558 169.403 8.14099 166.551 8.14099C165.138 8.14099 163.059 9.4966 161.812 11.4633L159.638 19.5719C159.223 21.1199 159.618 21.5098 160.254 21.5098L160.217 21.6477H155.455L155.492 21.5098C156.13 21.5121 156.732 21.1243 157.148 19.5741Z" fill="white"/>
<path d="M42.5059 6.99332V6.79797H43.7118V6.99332H42.5059ZM42.9997 8.4219V6.95056H43.2209V8.42485L42.9997 8.4219Z" fill="white"/>
<path d="M44.002 8.42482V6.8031H44.2917L44.7715 7.88597H44.8077L45.2853 6.8031H45.5802V8.42482H45.359V7.03604L45.3745 7.04046L44.9138 8.08573H44.647L44.184 7.04046L44.2017 7.03604V8.42482H44.002Z" fill="white"/>
<path d="M64.608 29.9959L63.0645 25.4655H63.9122L65.4226 29.9959H64.608ZM64.8115 29.9959V29.3517H65.7956V29.9959H64.8115ZM65.2022 29.9959L66.5165 25.4655H67.3141L65.974 29.9959H65.2022Z" fill="#E4BE9F"/>
<path d="M67.9062 26.1105V25.4655H69.4152V26.1105H67.9062ZM68.6043 29.9959V25.4655H69.4152V29.9959H68.6043Z" fill="#E4BE9F"/>
<path d="M72.9235 30.1484C72.5703 30.1572 72.2197 30.0878 71.8966 29.9449C71.6238 29.8215 71.383 29.6372 71.1926 29.4061C71.0115 29.1838 70.8746 28.9288 70.7894 28.6549C70.7022 28.3808 70.658 28.0949 70.6582 27.8072V27.6539C70.6576 27.3633 70.7019 27.0744 70.7894 26.7973C70.8748 26.5235 71.0116 26.2686 71.1926 26.0462C71.3799 25.8185 71.6159 25.6358 71.8833 25.5117C72.1941 25.373 72.5317 25.3051 72.8719 25.3127C73.3633 25.3127 73.769 25.4189 74.0889 25.6312C74.3981 25.8323 74.6452 26.1157 74.8024 26.4494C74.9576 26.7842 75.0369 27.1492 75.0346 27.5182V27.8868H71.0135V27.2765H74.442L74.2547 27.6067C74.2616 27.3208 74.2097 27.0365 74.1021 26.7715C74.0086 26.5466 73.8486 26.3555 73.6436 26.2238C73.4103 26.0865 73.1424 26.019 72.8719 26.0292C72.5883 26.0183 72.3084 26.0956 72.0706 26.2504C71.856 26.3998 71.6903 26.6093 71.5944 26.8526C71.386 27.4178 71.386 28.0388 71.5944 28.6041C71.6921 28.8519 71.8621 29.0646 72.0824 29.2144C72.3341 29.3709 72.6274 29.4472 72.9235 29.4334C73.2788 29.4334 73.5685 29.353 73.7918 29.196C74.0152 29.039 74.1493 28.8532 74.195 28.6439H74.9587C74.9058 28.9381 74.7792 29.2141 74.5907 29.4461C74.4023 29.6781 74.1581 29.8586 73.881 29.9707C73.5768 30.0929 73.2513 30.1533 72.9235 30.1484Z" fill="#E4BE9F"/>
<path d="M75.5254 26.0772V25.4653H78.6472V26.0772H75.5254ZM77.9513 30.046C77.6524 30.0531 77.3547 30.0046 77.0734 29.903C76.8307 29.8103 76.6289 29.6341 76.5043 29.4061C76.3716 29.1717 76.3053 28.8538 76.3053 28.4523V24.0913H77.0859V28.554C77.0859 28.7965 77.1515 28.9845 77.285 29.1179C77.4184 29.2513 77.6064 29.3169 77.8489 29.3169H78.6472V30.046H77.9513Z" fill="#E4BE9F"/>
<path d="M79.8027 29.9958V25.4653H80.447V27.4085H80.3453C80.3349 27.023 80.3967 26.639 80.5273 26.2762C80.6333 25.9884 80.8279 25.7416 81.0832 25.5715C81.3323 25.4101 81.6456 25.3304 82.0245 25.3304H82.0584C82.6299 25.3304 83.0528 25.5086 83.327 25.8649C83.6012 26.2212 83.7386 26.7357 83.7391 27.4085V29.9958H82.9282V27.2389C82.9282 26.888 82.8299 26.6067 82.6334 26.3949C82.4368 26.1831 82.1665 26.0772 81.8225 26.0772C81.4662 26.0772 81.1778 26.1873 80.9571 26.4074C80.736 26.6286 80.6269 26.9234 80.6269 27.292V29.9988L79.8027 29.9958Z" fill="#E4BE9F"/>
<path d="M86.4868 30.1153C86.1848 30.1226 85.885 30.063 85.6088 29.9406C85.3731 29.8334 85.175 29.6577 85.0405 29.4364C84.9018 29.194 84.8327 28.918 84.8407 28.6388C84.8307 28.3547 84.9059 28.0741 85.0567 27.8331C85.2124 27.6093 85.4332 27.439 85.6892 27.3451C86.0094 27.2271 86.3491 27.1709 86.6902 27.1793H87.9198V27.7904H86.6563C86.3276 27.7904 86.0759 27.8695 85.9015 28.0277C85.8157 28.1042 85.7477 28.1985 85.7024 28.3041C85.657 28.4097 85.6354 28.524 85.6391 28.6388C85.6349 28.7524 85.6564 28.8656 85.7018 28.9698C85.7472 29.074 85.8154 29.1667 85.9015 29.2411C86.0764 29.3939 86.3281 29.4701 86.6563 29.4696C86.8453 29.4702 87.0325 29.4341 87.2077 29.3634C87.3855 29.2913 87.5375 29.1676 87.6441 29.0081C87.7606 28.8408 87.824 28.6108 87.835 28.3159L88.0562 28.6388C88.0395 28.923 87.9599 29.2 87.8232 29.4497C87.7005 29.6634 87.5174 29.8363 87.2969 29.9465C87.044 30.066 86.7664 30.1239 86.4868 30.1153ZM87.9714 29.9959V28.6388H87.835V27.0687C87.835 26.7576 87.7554 26.5232 87.594 26.3647C87.4325 26.2062 87.1967 26.1274 86.8856 26.1274C86.7092 26.1274 86.5283 26.1301 86.343 26.1355C86.1558 26.1414 85.9745 26.148 85.8079 26.1524C85.6413 26.1569 85.4916 26.1672 85.3656 26.1782V25.4654C85.4902 25.4544 85.6214 25.4448 85.76 25.4367C85.8985 25.4286 86.0415 25.4219 86.1882 25.419C86.3349 25.416 86.4772 25.4153 86.6121 25.4153C87.0755 25.4153 87.4544 25.4701 87.7488 25.5797C88.0245 25.6752 88.2565 25.8667 88.4026 26.1193C88.5442 26.3679 88.6149 26.7043 88.6149 27.1284V29.9959H87.9714Z" fill="#E4BE9F"/>
<path d="M90.1074 29.9958V25.4653H90.7524V27.4084H90.65C90.6402 27.0263 90.6991 26.6456 90.8239 26.2843C90.9219 26.0008 91.1036 25.7538 91.3451 25.5759C91.5775 25.4122 91.8724 25.3304 92.2297 25.3304H92.2628C92.576 25.319 92.8849 25.4048 93.1474 25.5759C93.3905 25.7521 93.5727 25.9997 93.6686 26.2843C93.7899 26.6463 93.8473 27.0267 93.8381 27.4084H93.6007C93.5913 27.026 93.6515 26.6451 93.7784 26.2843C93.8798 26 94.0648 25.7531 94.3091 25.5759C94.5436 25.4122 94.8384 25.3304 95.1937 25.3304H95.2269C95.5421 25.3187 95.8533 25.4044 96.1181 25.5759C96.364 25.7514 96.5495 25.9989 96.6488 26.2843C96.7727 26.6458 96.8313 27.0264 96.8221 27.4084V29.9958H96.0112V27.2308C96.0112 26.8622 95.9198 26.5791 95.7392 26.3779C95.5586 26.1767 95.3072 26.0771 94.9844 26.0771C94.8353 26.0707 94.6866 26.0957 94.5478 26.1504C94.409 26.2051 94.2832 26.2884 94.1787 26.3948C93.9745 26.6064 93.8735 26.902 93.8735 27.2794V29.9943H93.0626V27.2308C93.0626 26.8627 92.972 26.5784 92.7906 26.3779C92.61 26.1767 92.3587 26.0771 92.0365 26.0771C91.8873 26.0705 91.7384 26.0953 91.5995 26.1501C91.4605 26.2048 91.3347 26.2882 91.2301 26.3948C91.0259 26.6064 90.9249 26.902 90.9249 27.2794V29.9943L90.1074 29.9958Z" fill="#E4BE9F"/>
<path d="M103.417 30.0896C103.069 30.0959 102.725 30.0113 102.42 29.8441C102.125 29.6763 101.885 29.4274 101.728 29.1269C101.55 28.7754 101.454 28.3879 101.449 27.9939H101.67V29.937H101.025V23.745H101.836V26.757L101.547 27.3762C101.569 26.8847 101.668 26.4832 101.842 26.1717C102 25.8783 102.24 25.6378 102.534 25.4802C102.826 25.3288 103.151 25.2516 103.48 25.2554C103.775 25.2505 104.068 25.309 104.339 25.4269C104.609 25.5448 104.851 25.7193 105.049 25.9387C105.243 26.1532 105.393 26.4036 105.491 26.6759C105.594 26.9662 105.646 27.2723 105.644 27.5804V27.7329C105.646 28.0424 105.592 28.3498 105.486 28.6404C105.385 28.9177 105.231 29.1726 105.033 29.3908C104.835 29.6102 104.594 29.7859 104.324 29.9068C104.038 30.0321 103.729 30.0944 103.417 30.0896ZM103.324 29.3768C103.605 29.3833 103.883 29.3063 104.121 29.1556C104.349 29.0068 104.532 28.7969 104.647 28.5497C104.776 28.2694 104.84 27.9634 104.833 27.6548C104.841 27.3471 104.775 27.042 104.643 26.7643C104.526 26.5212 104.342 26.3166 104.113 26.1746C103.875 26.0341 103.603 25.9628 103.327 25.969C103.064 25.9665 102.805 26.0293 102.572 26.1518C102.342 26.2718 102.149 26.4535 102.016 26.6766C101.872 26.9281 101.8 27.2146 101.808 27.5044V27.8944C101.8 28.1751 101.874 28.4521 102.02 28.692C102.157 28.9089 102.351 29.0846 102.58 29.2006C102.811 29.3188 103.067 29.3792 103.327 29.3768H103.324Z" fill="#E4BE9F"/>
<path d="M106.291 24.3884V23.7434H107.732V24.3884H106.291ZM106.918 29.9369V23.7449H107.729V29.9369H106.918Z" fill="#E4BE9F"/>
<path d="M111.382 30.0894C111.024 30.097 110.668 30.0276 110.339 29.886C110.052 29.7593 109.794 29.5757 109.58 29.3464C109.376 29.1294 109.218 28.8744 109.113 28.596C109.01 28.3253 108.957 28.038 108.957 27.7483V27.5949C108.957 27.3034 109.012 27.0145 109.118 26.7428C109.225 26.4622 109.386 26.2054 109.592 25.9872C109.808 25.7593 110.068 25.5774 110.356 25.4528C111.015 25.1874 111.75 25.1874 112.409 25.4528C112.697 25.5776 112.957 25.7594 113.173 25.9872C113.379 26.2055 113.54 26.4623 113.647 26.7428C113.752 27.0145 113.807 27.3034 113.808 27.5949V27.7483C113.808 28.0381 113.755 28.3253 113.651 28.596C113.546 28.8743 113.387 29.1293 113.184 29.3464C112.97 29.5761 112.712 29.7597 112.425 29.886C112.096 30.0276 111.74 30.097 111.382 30.0894ZM111.382 29.3597C111.688 29.369 111.989 29.291 112.252 29.1348C112.49 28.9889 112.681 28.7786 112.804 28.5282C112.934 28.2615 112.999 27.9681 112.995 27.6716C113 27.3718 112.933 27.0752 112.799 26.8069C112.674 26.5577 112.482 26.3487 112.243 26.204C111.98 26.0594 111.685 25.9835 111.384 25.9835C111.084 25.9835 110.789 26.0594 110.526 26.204C110.286 26.3478 110.092 26.5569 109.966 26.8069C109.833 27.0753 109.766 27.3719 109.771 27.6716C109.767 27.9681 109.832 28.2615 109.962 28.5282C110.085 28.7782 110.275 28.9885 110.512 29.1348C110.775 29.2908 111.077 29.3688 111.382 29.3597Z" fill="#E4BE9F"/>
<path d="M116.973 30.0894C116.624 30.0979 116.278 30.0284 115.959 29.886C115.685 29.7587 115.443 29.5715 115.251 29.3383C115.067 29.1127 114.924 28.8557 114.831 28.5798C114.739 28.312 114.692 28.0312 114.691 27.7483V27.5949C114.691 27.3067 114.738 27.0203 114.831 26.7472C114.923 26.4723 115.067 26.2176 115.255 25.9968C115.451 25.7691 115.692 25.5852 115.963 25.4572C116.275 25.3154 116.614 25.2459 116.957 25.2538C117.308 25.248 117.657 25.3206 117.978 25.4661C118.269 25.598 118.521 25.8041 118.708 26.0639C118.895 26.3326 119.002 26.6487 119.018 26.9757H118.238C118.201 26.6989 118.061 26.4461 117.846 26.2673C117.626 26.0786 117.33 25.984 116.957 25.9836C116.672 25.9734 116.39 26.0506 116.15 26.2047C115.933 26.3542 115.765 26.5638 115.666 26.8077C115.453 27.3603 115.453 27.9726 115.666 28.5252C115.765 28.7728 115.934 28.9859 116.153 29.1385C116.397 29.2957 116.683 29.3742 116.972 29.3634C117.201 29.369 117.427 29.3228 117.636 29.2285C117.813 29.1453 117.967 29.0201 118.085 28.8636C118.197 28.7125 118.268 28.5345 118.289 28.3476H119.069C119.061 28.6798 118.953 29.0019 118.76 29.2727C118.567 29.5348 118.31 29.7434 118.014 29.8786C117.687 30.0251 117.331 30.0971 116.973 30.0894Z" fill="#E4BE9F"/>
<path d="M120.172 29.937V23.745H120.983V29.937H120.172ZM123.294 29.937L121.588 27.8244H120.841L122.92 25.4065H123.777L121.893 27.5907L121.953 27.158L124.238 29.9407L123.294 29.937Z" fill="#E4BE9F"/>
<path d="M126.871 30.0894C126.523 30.0979 126.176 30.0284 125.858 29.886C125.584 29.7587 125.342 29.5715 125.149 29.3383C124.965 29.1128 124.822 28.8559 124.729 28.5798C124.638 28.312 124.591 28.0312 124.59 27.7483V27.5949C124.59 27.3067 124.637 27.0203 124.729 26.7472C124.821 26.4722 124.965 26.2174 125.154 25.9968C125.349 25.7691 125.59 25.5852 125.861 25.4572C126.173 25.3154 126.513 25.2459 126.855 25.2538C127.207 25.2481 127.556 25.3206 127.876 25.4661C128.168 25.598 128.42 25.8041 128.607 26.0639C128.794 26.3326 128.901 26.6487 128.916 26.9757H128.136C128.099 26.6989 127.959 26.4461 127.745 26.2673C127.524 26.0786 127.228 25.984 126.855 25.9836C126.57 25.9734 126.289 26.0506 126.049 26.2047C125.832 26.3542 125.664 26.5638 125.564 26.8077C125.351 27.3603 125.351 27.9726 125.564 28.5252C125.664 28.7718 125.834 28.9839 126.052 29.1356C126.296 29.2929 126.582 29.3714 126.871 29.3604C127.1 29.366 127.327 29.3199 127.535 29.2255C127.712 29.1424 127.867 29.0171 127.984 28.8606C128.097 28.7096 128.167 28.5316 128.189 28.3446H128.968C128.96 28.6768 128.852 28.9989 128.66 29.2697C128.466 29.5319 128.209 29.7404 127.913 29.8757C127.586 30.0233 127.23 30.0963 126.871 30.0894Z" fill="#E4BE9F"/>
<path d="M130.07 29.937V23.745H130.881V27.4432H130.677C130.668 27.0501 130.727 26.6585 130.851 26.2852C130.949 25.9855 131.137 25.7234 131.389 25.5348C131.635 25.3598 131.946 25.2724 132.323 25.2724H132.357C132.898 25.2724 133.307 25.4517 133.586 25.8105C133.866 26.1692 134.004 26.6825 134.003 27.3504V29.9377H133.192V27.1808C133.192 26.8127 133.089 26.527 132.882 26.3235C132.776 26.221 132.65 26.1411 132.512 26.0887C132.375 26.0362 132.228 26.0123 132.081 26.0184C131.718 26.0184 131.428 26.1387 131.211 26.3796C130.99 26.6199 130.885 26.9346 130.885 27.3253V29.9377L130.07 29.937Z" fill="#E4BE9F"/>
<path d="M136.756 30.0556C136.454 30.0633 136.154 30.0036 135.878 29.8809C135.642 29.7742 135.444 29.5984 135.31 29.3767C135.171 29.1346 135.102 28.8588 135.11 28.5799C135.1 28.2955 135.175 28.0147 135.326 27.7734C135.482 27.5496 135.703 27.3793 135.959 27.2854C136.279 27.1681 136.619 27.112 136.96 27.1203H138.189V27.7314H136.926C136.597 27.7314 136.345 27.8105 136.171 27.9688C136.085 28.0452 136.017 28.1396 135.972 28.2451C135.927 28.3507 135.905 28.465 135.909 28.5799C135.904 28.6935 135.926 28.8066 135.971 28.9108C136.017 29.0151 136.085 29.1078 136.171 29.1821C136.346 29.3349 136.598 29.4111 136.926 29.4106C137.115 29.4112 137.302 29.3752 137.477 29.3045C137.655 29.2322 137.807 29.1081 137.914 28.9484C138.03 28.7818 138.093 28.5518 138.105 28.257L138.326 28.5799C138.309 28.8641 138.23 29.1411 138.093 29.3907C137.97 29.6045 137.787 29.7773 137.566 29.8875C137.313 30.0068 137.036 30.0644 136.756 30.0556ZM138.241 29.9369V28.5799H138.105V27.0097C138.105 26.6987 138.025 26.4643 137.863 26.3058C137.702 26.1473 137.466 26.0684 137.155 26.0684C136.98 26.0684 136.798 26.0684 136.613 26.0765L136.077 26.0935C135.909 26.0994 135.761 26.1075 135.635 26.1185V25.4064C135.76 25.3954 135.891 25.3851 136.029 25.377C136.168 25.3689 136.311 25.363 136.458 25.36C136.604 25.3571 136.747 25.3563 136.882 25.3563C137.345 25.3563 137.724 25.4111 138.018 25.5207C138.294 25.616 138.526 25.8076 138.672 26.0603C138.814 26.309 138.884 26.6453 138.884 27.0694V29.9369H138.241Z" fill="#E4BE9F"/>
<path d="M139.902 26.0514V25.4064H141.413V26.0514H139.902ZM140.598 29.9369V25.4064H141.409V29.9369H140.598Z" fill="#E4BE9F"/>
<path d="M142.988 29.9369V25.4064H143.633V27.3495H143.531C143.521 26.9639 143.582 26.5797 143.712 26.2165C143.818 25.9289 144.013 25.6824 144.268 25.5125C144.518 25.3511 144.831 25.2715 145.209 25.2715H145.244C145.814 25.2715 146.238 25.4491 146.512 25.8059C146.785 26.1627 146.924 26.6765 146.924 27.3495V29.9369H146.113V27.1799C146.113 26.8291 146.015 26.5477 145.818 26.3359C145.622 26.1241 145.35 26.018 145.004 26.0175C144.844 26.0108 144.685 26.0368 144.536 26.0937C144.388 26.1506 144.252 26.2373 144.137 26.3485C143.916 26.5696 143.807 26.8645 143.807 27.233V29.9398L142.988 29.9369Z" fill="#E4BE9F"/>
<path d="M151.609 29.8602L150.328 25.3304H151.109L152.355 29.8602H151.609ZM151.796 29.8602V29.2159H152.738V29.8602H151.796ZM152.212 29.8602L153.128 25.483H154.234L155.302 29.8602H154.607L153.538 25.5H153.81L152.885 29.8602H152.212ZM154.773 29.8602V29.2159H155.715V29.8602H154.773ZM155.155 29.8602L156.242 25.3304H156.979L155.868 29.8602H155.155Z" fill="#E4BE9F"/>
<path d="M159.92 30.0128C159.567 30.0215 159.216 29.9523 158.893 29.8101C158.621 29.6864 158.38 29.5018 158.189 29.2705C158.008 29.0484 157.872 28.7936 157.786 28.5201C157.699 28.2461 157.654 27.9601 157.654 27.6724V27.5168C157.654 27.2262 157.698 26.9372 157.786 26.6603C157.872 26.3868 158.009 26.1321 158.189 25.9099C158.376 25.6818 158.612 25.4991 158.88 25.3754C159.191 25.2364 159.528 25.1684 159.868 25.1764C160.359 25.1764 160.765 25.2826 161.086 25.4949C161.395 25.6955 161.642 25.979 161.799 26.3131C161.954 26.6479 162.033 27.0129 162.031 27.3819V27.7461H158.01V27.1365H161.438L161.252 27.4667C161.258 27.1806 161.206 26.8961 161.099 26.6308C161.005 26.406 160.845 26.2152 160.64 26.0838C160.407 25.9459 160.139 25.878 159.868 25.8885C159.585 25.8774 159.305 25.9547 159.067 26.1096C158.853 26.2593 158.687 26.4688 158.591 26.7119C158.383 27.2774 158.383 27.8986 158.591 28.4641C158.689 28.7118 158.859 28.9243 159.079 29.0737C159.3 29.2248 159.58 29.2993 159.92 29.2993C160.275 29.2993 160.565 29.2201 160.789 29.0619C161.012 28.9037 161.147 28.7199 161.192 28.5105H161.956C161.902 28.8041 161.775 29.0793 161.587 29.3106C161.398 29.542 161.154 29.7219 160.878 29.8337C160.573 29.9565 160.248 30.0174 159.92 30.0128Z" fill="#E4BE9F"/>
<path d="M165.111 30.0128C164.758 30.0215 164.408 29.9523 164.085 29.8101C163.812 29.6862 163.571 29.5017 163.38 29.2705C163.2 29.0481 163.063 28.7935 162.978 28.5201C162.89 28.2461 162.845 27.9601 162.846 27.6724V27.5168C162.845 27.2262 162.89 26.9372 162.978 26.6603C163.063 26.387 163.2 26.1323 163.38 25.9099C163.567 25.6819 163.804 25.4992 164.072 25.3754C164.382 25.2364 164.719 25.1684 165.059 25.1764C165.551 25.1764 165.957 25.2826 166.277 25.4949C166.587 25.6955 166.834 25.979 166.99 26.3131C167.145 26.6479 167.225 27.0129 167.223 27.3819V27.7461H163.202V27.1365H166.629L166.443 27.4667C166.45 27.1806 166.398 26.8961 166.29 26.6308C166.196 26.406 166.036 26.2152 165.831 26.0838C165.598 25.9459 165.33 25.878 165.059 25.8885C164.776 25.8776 164.496 25.9548 164.258 26.1096C164.044 26.2594 163.879 26.4688 163.783 26.7119C163.573 27.2772 163.573 27.8988 163.783 28.4641C163.88 28.712 164.05 28.9246 164.271 29.0737C164.492 29.2248 164.772 29.2993 165.111 29.2993C165.467 29.2993 165.757 29.2201 165.98 29.0619C166.203 28.9037 166.338 28.7199 166.383 28.5105H167.147C167.093 28.8041 166.966 29.0794 166.778 29.3108C166.589 29.5421 166.345 29.722 166.069 29.8337C165.764 29.9565 165.439 30.0174 165.111 30.0128Z" fill="#E4BE9F"/>
<path d="M168.377 29.8602V23.6682H169.192V29.8602H168.377ZM171.499 29.8602L169.794 27.7476H169.047L171.125 25.3305H171.982L170.099 27.5102L170.158 27.0782L172.443 29.8602H171.499Z" fill="#E4BE9F"/>
<path d="M141.406 24.1156H140.596V24.9419H141.406V24.1156Z" fill="#E4BE9F"/>
<path d="M69.4156 24.1156H68.6055V24.9419H69.4156V24.1156Z" fill="#E4BE9F"/>
<defs>
<radialGradient id="paint0_radial_1749_3290" cx="0" cy="0" r="1" gradientUnits="userSpaceOnUse" gradientTransform="translate(35.6152 -15.1173) scale(90.0422)">
<stop offset="0.07" stop-color="#F5E7DC"/>
<stop offset="0.52" stop-color="#E6721F"/>
<stop offset="0.65" stop-color="#E0641F"/>
<stop offset="0.86" stop-color="#764423"/>
<stop offset="1" stop-color="#42210B"/>
</radialGradient>
<radialGradient id="paint1_radial_1749_3290" cx="0" cy="0" r="1" gradientUnits="userSpaceOnUse" gradientTransform="translate(35.6166 -15.1173) scale(90.0422)">
<stop offset="0.07" stop-color="#F5E7DC"/>
<stop offset="0.52" stop-color="#E6721F"/>
<stop offset="0.65" stop-color="#E0641F"/>
<stop offset="0.86" stop-color="#764423"/>
<stop offset="1" stop-color="#42210B"/>
</radialGradient>
</defs>
</svg>
